<mxfile host="65bd71144e">
    <diagram id="3oKsPaVqC4cpQsYlo91Y" name="Page-1">
        <mxGraphModel dx="951" dy="599" grid="1" gridSize="10" guides="1" tooltips="1" connect="1" arrows="1" fold="1" page="1" pageScale="1" pageWidth="850" pageHeight="1100" math="0" shadow="0">
            <root>
                <mxCell id="0"/>
                <mxCell id="1" parent="0"/>
                <mxCell id="2" value="&lt;font size=&quot;3&quot;&gt;PAGE TITLE&lt;/font&gt;" style="rounded=1;whiteSpace=wrap;html=1;" vertex="1" parent="1">
                    <mxGeometry x="25" y="30" width="800" height="60" as="geometry"/>
                </mxCell>
                <mxCell id="3" value="SEARCH INPUT" style="rounded=1;whiteSpace=wrap;html=1;" vertex="1" parent="1">
                    <mxGeometry x="360" y="90" width="120" height="30" as="geometry"/>
                </mxCell>
                <mxCell id="4" value="COACH RECCOMENDATIONS" style="rounded=0;whiteSpace=wrap;html=1;" vertex="1" parent="1">
                    <mxGeometry x="80" y="240" width="400" height="120" as="geometry"/>
                </mxCell>
                <mxCell id="5" value="WHAT HELPED US&amp;nbsp;" style="rounded=0;whiteSpace=wrap;html=1;" vertex="1" parent="1">
                    <mxGeometry x="80" y="380" width="400" height="120" as="geometry"/>
                </mxCell>
                <mxCell id="7" value="VIDEO" style="rounded=0;whiteSpace=wrap;html=1;" vertex="1" parent="1">
                    <mxGeometry x="520" y="240" width="150" height="120" as="geometry"/>
                </mxCell>
                <mxCell id="8" value="SUBHEADING WITH EXPLANATION AND EXAMPLE CODE" style="rounded=0;whiteSpace=wrap;html=1;" vertex="1" parent="1">
                    <mxGeometry x="235" y="160" width="380" height="40" as="geometry"/>
                </mxCell>
                <mxCell id="9" value="VIDEO" style="rounded=0;whiteSpace=wrap;html=1;" vertex="1" parent="1">
                    <mxGeometry x="520" y="380" width="150" height="120" as="geometry"/>
                </mxCell>
            </root>
        </mxGraphModel>
    </diagram>
</mxfile>